<svg xmlns="http://www.w3.org/2000/svg" xmlns:xlink="http://www.w3.org/1999/xlink" width="500" zoomAndPan="magnify" viewBox="0 0 375 374.999991" height="500" preserveAspectRatio="xMidYMid meet" version="1.0"><defs><clipPath id="10c59b7baf"><path d="M 115 143 L 163 143 L 163 191.484375 L 115 191.484375 Z M 115 143 " clip-rule="nonzero"/></clipPath><clipPath id="81725e7ca2"><path d="M 162.234375 160 C 162.234375 175.03125 160.546875 178.917969 158.214844 181.898438 C 155.882812 184.746094 152.515625 187.339844 149.144531 188.894531 C 145.777344 190.449219 141.632812 191.226562 137.875 190.96875 C 134.117188 190.707031 130.097656 189.542969 126.859375 187.597656 C 123.75 185.65625 120.769531 182.675781 118.824219 179.433594 C 116.882812 176.324219 115.585938 172.179688 115.328125 168.550781 C 115.066406 164.792969 115.847656 160.648438 117.402344 157.277344 C 118.957031 153.910156 121.546875 150.539062 124.527344 148.207031 C 127.507812 145.875 131.394531 144.191406 135.023438 143.542969 C 138.652344 142.894531 142.925781 143.15625 146.425781 144.191406 C 149.921875 145.226562 156.273438 150.152344 156.273438 150.152344 " clip-rule="nonzero"/></clipPath><clipPath id="4a7237e0f1"><path d="M 106 49 L 243.992188 49 L 243.992188 198 L 106 198 Z M 106 49 " clip-rule="nonzero"/></clipPath><clipPath id="5b2ad14f0a"><path d="M 150.570312 190.191406 C 137.613281 197.1875 135.800781 197.445312 133.855469 197.574219 C 131.785156 197.707031 130.097656 197.835938 127.765625 197.316406 C 124.527344 196.539062 119.863281 194.984375 116.753906 192.652344 C 113.644531 190.320312 110.664062 186.171875 109.109375 183.324219 C 107.941406 181.25 107.554688 179.433594 107.164062 177.492188 C 106.777344 175.546875 106.386719 173.734375 106.644531 171.402344 C 107.035156 168.164062 107.554688 164.144531 110.015625 159.871094 C 114.550781 152.09375 129.839844 141.082031 136.835938 131.753906 C 142.667969 123.976562 145.128906 116.332031 150.441406 108.558594 C 156.273438 99.878906 163.660156 89.511719 170.914062 82.382812 C 177.261719 76.164062 191.128906 67.484375 191.128906 67.355469 C 191.128906 67.355469 185.296875 72.40625 184.648438 71.890625 C 184.132812 71.5 185.816406 67.484375 187.242188 65.152344 C 189.3125 61.78125 192.941406 56.988281 196.828125 54.398438 C 200.585938 51.804688 206.289062 50.121094 210.175781 49.472656 C 212.894531 48.953125 214.710938 48.953125 217.429688 49.472656 C 221.320312 50.25 227.019531 51.933594 230.90625 54.65625 C 234.664062 57.246094 238.292969 61.265625 240.367188 65.410156 C 242.570312 69.558594 243.476562 75.515625 243.734375 79.40625 C 243.863281 82.125 243.347656 83.421875 242.828125 86.53125 C 241.921875 92.101562 240.238281 100.785156 237.644531 110.113281 C 233.757812 124.238281 227.019531 148.597656 220.28125 162.851562 C 215.230469 173.476562 210.953125 183.324219 203.695312 189.023438 C 197.347656 194.078125 186.980469 195.632812 180.503906 196.796875 C 176.097656 197.574219 172.859375 197.574219 169.230469 197.316406 C 165.730469 197.058594 162.363281 196.28125 159.253906 195.113281 C 156.144531 193.816406 153.035156 192.132812 150.441406 189.929688 C 147.851562 187.726562 145.519531 185.007812 143.703125 182.15625 C 141.890625 179.304688 140.59375 175.9375 139.816406 172.566406 C 139.039062 169.328125 138.910156 165.699219 139.296875 162.332031 C 139.6875 158.960938 140.59375 155.464844 142.019531 152.355469 C 143.445312 149.246094 145.386719 146.394531 147.722656 143.933594 C 150.054688 141.46875 152.902344 139.136719 155.882812 137.582031 C 158.863281 136.027344 162.234375 134.863281 165.601562 134.34375 C 168.972656 133.824219 172.46875 133.695312 175.839844 134.214844 C 179.207031 134.730469 182.578125 135.898438 185.554688 137.453125 C 188.535156 139.007812 191.515625 141.210938 193.847656 143.671875 C 196.179688 146.136719 198.125 148.984375 199.550781 152.09375 C 200.976562 155.203125 202.011719 158.703125 202.402344 162.074219 C 202.789062 165.441406 202.53125 169.070312 201.882812 172.308594 C 201.234375 175.675781 199.808594 179.046875 198.125 181.898438 C 196.441406 184.746094 194.109375 187.46875 191.515625 189.671875 C 188.925781 191.875 185.816406 193.6875 182.707031 194.984375 C 179.597656 196.28125 176.097656 197.058594 172.730469 197.316406 C 169.359375 197.574219 165.730469 197.1875 162.492188 196.28125 C 159.253906 195.371094 156.011719 193.949219 153.164062 192.003906 C 150.3125 190.058594 147.722656 187.597656 145.648438 184.878906 C 143.574219 182.15625 141.890625 179.046875 140.722656 175.808594 C 139.6875 172.566406 139.039062 169.070312 139.039062 165.699219 C 139.039062 162.332031 139.6875 158.832031 140.722656 155.59375 C 141.761719 152.355469 143.445312 149.246094 145.519531 146.523438 C 147.589844 143.800781 150.183594 141.339844 152.902344 139.398438 C 155.753906 137.453125 158.476562 136.027344 162.234375 134.992188 C 167.417969 133.566406 181.152344 131.882812 181.410156 133.046875 C 181.796875 134.34375 162.105469 146.003906 159.511719 143.542969 C 155.753906 140.042969 173.375 109.207031 177.78125 95.988281 C 180.890625 86.660156 181.929688 78.496094 184.648438 71.890625 C 186.722656 66.835938 188.925781 62.300781 191.386719 59.191406 C 193.070312 56.988281 194.367188 55.820312 196.699219 54.398438 C 200.070312 52.453125 205.511719 49.992188 210.175781 49.472656 C 214.839844 48.953125 220.671875 50.121094 224.429688 51.285156 C 227.148438 52.0625 228.703125 52.972656 230.90625 54.65625 C 234.015625 57.117188 238.292969 61.265625 240.367188 65.410156 C 242.570312 69.558594 243.476562 75.515625 243.734375 79.40625 C 243.863281 82.125 243.734375 83.941406 242.828125 86.53125 C 241.660156 90.03125 239.589844 93.398438 235.960938 98.0625 C 228.964844 107.132812 211.339844 120.738281 200.199219 134.214844 C 188.148438 148.726562 178.558594 172.179688 166.636719 182.675781 C 158.085938 190.191406 147.203125 194.335938 139.816406 196.410156 C 135.152344 197.707031 131.007812 197.707031 127.765625 197.316406 C 125.433594 197.058594 123.75 196.410156 121.9375 195.632812 C 120.121094 194.855469 118.566406 194.078125 116.753906 192.652344 C 114.289062 190.578125 110.792969 186.820312 109.109375 183.324219 C 107.421875 179.824219 106.515625 175.289062 106.644531 171.402344 C 106.777344 167.515625 108.070312 163.238281 110.015625 159.871094 C 111.957031 156.5 115.199219 153.648438 118.4375 151.1875 C 121.675781 148.726562 125.5625 146.523438 129.449219 145.355469 C 133.207031 144.320312 137.613281 143.800781 141.371094 144.449219 C 145.128906 145.097656 149.144531 146.78125 152.257812 149.113281 C 155.367188 151.449219 158.085938 154.945312 159.769531 158.445312 C 161.457031 161.941406 162.363281 166.21875 162.234375 170.105469 C 162.105469 173.992188 160.808594 178.140625 158.863281 181.507812 C 156.921875 184.878906 150.570312 190.191406 150.570312 190.191406 " clip-rule="nonzero"/></clipPath><clipPath id="4334e138e9"><path d="M 160 44 L 324 44 L 324 197 L 160 197 Z M 160 44 " clip-rule="nonzero"/></clipPath><clipPath id="25d353a452"><path d="M 191 74.222656 C 220.152344 64.890625 244.511719 53.101562 258.375 49.085938 C 267.707031 46.363281 273.40625 44.550781 282.347656 44.417969 C 293.492188 44.289062 314.09375 43.902344 320.3125 50.640625 C 325.496094 56.210938 324.070312 68.78125 322.257812 77.203125 C 320.3125 85.882812 314.480469 95.082031 308.652344 101.949219 C 303.078125 108.558594 296.082031 111.410156 288.308594 118.148438 C 276.777344 128.125 258.636719 147.429688 247.234375 157.148438 C 239.71875 163.496094 233.886719 166.609375 227.925781 172.179688 C 221.835938 177.75 216.265625 186.949219 211.082031 190.707031 C 207.714844 193.171875 204.992188 194.207031 201.625 195.113281 C 198.253906 196.019531 194.625 196.410156 191.128906 196.148438 C 187.757812 195.890625 184.132812 195.242188 181.019531 193.949219 C 177.78125 192.652344 174.671875 190.707031 172.082031 188.503906 C 169.488281 186.300781 167.15625 183.453125 165.34375 180.472656 C 163.527344 177.492188 162.234375 174.121094 161.457031 170.753906 C 160.679688 167.386719 160.546875 163.757812 160.9375 160.386719 C 161.324219 157.019531 162.363281 153.390625 163.789062 150.28125 C 165.214844 147.171875 167.285156 144.191406 169.617188 141.730469 C 171.949219 139.265625 174.929688 136.933594 177.910156 135.378906 C 181.019531 133.695312 184.519531 132.53125 187.890625 132.011719 C 191.257812 131.492188 195.015625 131.492188 198.382812 132.140625 C 201.753906 132.789062 205.25 133.953125 208.230469 135.511719 C 211.210938 137.195312 214.191406 139.398438 216.523438 141.859375 C 218.855469 144.320312 220.929688 147.300781 222.355469 150.410156 C 223.78125 153.519531 224.6875 157.148438 225.078125 160.515625 C 225.464844 164.015625 225.335938 167.644531 224.558594 171.011719 C 223.78125 174.382812 222.484375 177.75 220.671875 180.730469 C 218.855469 183.710938 216.394531 186.433594 213.804688 188.636719 C 211.210938 190.835938 208.101562 192.652344 204.863281 193.949219 C 201.625 195.242188 198.125 196.019531 194.625 196.148438 C 191.257812 196.28125 187.5 195.890625 184.261719 194.984375 C 180.890625 194.078125 177.652344 192.523438 174.800781 190.578125 C 171.949219 188.636719 169.359375 186.171875 167.285156 183.453125 C 165.214844 180.730469 163.527344 177.363281 162.363281 174.121094 C 161.324219 170.882812 160.679688 167.253906 160.679688 163.886719 C 160.679688 160.386719 161.324219 156.761719 162.492188 153.519531 C 163.660156 150.28125 164.304688 147.949219 167.417969 144.320312 C 174.671875 135.640625 201.625 118.277344 213.027344 107.910156 C 220.542969 101.042969 224.558594 95.34375 230.777344 89.769531 C 236.996094 84.199219 243.085938 78.886719 250.214844 74.351562 C 257.730469 69.558594 270.425781 59.320312 274.832031 61.78125 C 278.980469 64.113281 271.851562 82.382812 276.648438 87.566406 C 281.960938 93.269531 307.613281 90.03125 307.746094 91.84375 C 307.875 93.65625 290.121094 95.210938 278.203125 98.453125 C 259.152344 103.632812 218.855469 119.441406 204.734375 121.90625 C 199.160156 122.941406 196.050781 122.941406 192.8125 122.421875 C 190.609375 122.035156 189.183594 121.644531 187.242188 120.480469 C 184.390625 118.925781 180.375 116.074219 178.042969 112.964844 C 175.707031 109.855469 174.152344 105.191406 173.375 102.078125 C 172.859375 99.746094 172.730469 98.320312 173.117188 95.988281 C 173.507812 92.75 174.800781 87.957031 176.875 84.71875 C 178.949219 81.476562 182.707031 78.367188 185.425781 76.554688 C 187.371094 75.257812 191 74.222656 191 74.222656 " clip-rule="nonzero"/></clipPath><clipPath id="9d97f0a58f"><path d="M 101 154 L 229 154 L 229 267 L 101 267 Z M 101 154 " clip-rule="nonzero"/></clipPath><clipPath id="2f5bb11e32"><path d="M 186.722656 200.554688 C 147.722656 220.640625 140.074219 226.988281 132.042969 225.5625 C 121.9375 223.75 103.148438 209.367188 101.59375 199.90625 C 100.167969 191.226562 111.179688 175.160156 119.472656 171.273438 C 127.378906 167.644531 140.59375 172.957031 149.664062 175.808594 C 157.828125 178.398438 163.917969 183.710938 171.949219 186.5625 C 180.503906 189.671875 192.421875 188.117188 199.550781 193.171875 C 206.417969 198.09375 215.359375 214.9375 214.320312 215.84375 C 213.285156 216.753906 193.847656 198.484375 193.847656 198.484375 C 193.847656 198.484375 219.246094 221.675781 220.28125 220.769531 C 220.929688 220.121094 212.117188 209.109375 212.636719 208.589844 C 213.15625 208.199219 218.207031 212.21875 220.410156 214.550781 C 222.613281 216.882812 224.6875 219.734375 225.984375 222.714844 C 227.410156 225.691406 228.1875 229.0625 228.574219 232.300781 C 228.964844 235.539062 228.703125 238.910156 228.054688 242.019531 C 227.410156 245.128906 226.113281 248.367188 224.429688 251.21875 C 222.742188 253.941406 220.542969 256.660156 218.078125 258.734375 C 215.617188 260.808594 212.636719 262.75 209.65625 263.917969 C 206.675781 265.082031 203.308594 265.859375 200.070312 265.992188 C 196.828125 266.121094 193.332031 265.859375 190.222656 264.953125 C 187.109375 264.046875 184 262.621094 181.28125 260.808594 C 178.558594 258.992188 176.097656 256.660156 174.152344 254.070312 C 172.210938 251.476562 170.527344 248.496094 169.488281 245.386719 C 168.453125 242.277344 167.933594 238.910156 167.933594 235.671875 C 167.933594 232.429688 168.453125 228.933594 169.488281 225.824219 C 170.527344 222.714844 172.082031 219.734375 174.023438 217.140625 C 175.96875 214.550781 178.558594 212.21875 181.28125 210.402344 C 184 208.589844 187.109375 207.164062 190.222656 206.257812 C 193.332031 205.351562 196.699219 205.089844 199.9375 205.21875 C 203.179688 205.351562 206.546875 206.128906 209.527344 207.292969 C 212.507812 208.460938 215.617188 210.273438 218.078125 212.347656 C 220.542969 214.421875 222.742188 217.140625 224.429688 219.863281 C 226.113281 222.582031 227.410156 225.824219 228.054688 228.933594 C 228.703125 232.042969 228.964844 235.539062 228.574219 238.78125 C 228.1875 242.019531 227.277344 245.386719 225.984375 248.367188 C 224.6875 251.347656 222.742188 254.199219 220.542969 256.53125 C 218.339844 258.863281 215.488281 260.9375 212.636719 262.492188 C 209.785156 264.046875 206.546875 265.082031 203.308594 265.601562 C 200.070312 266.121094 196.699219 266.121094 193.460938 265.601562 C 190.222656 265.082031 187.109375 264.046875 184.132812 262.492188 C 181.019531 260.808594 178.6875 258.992188 175.449219 255.625 C 169.878906 249.921875 154.71875 229.710938 155.367188 229.191406 C 155.882812 228.671875 174.414062 244.480469 173.507812 246.164062 C 172.597656 247.851562 157.699219 242.539062 150.3125 239.6875 C 142.796875 236.707031 135.410156 233.46875 128.804688 228.671875 C 121.9375 223.75 109.753906 211.050781 110.402344 210.144531 C 111.050781 209.238281 127.765625 225.953125 133.984375 224.136719 C 140.464844 222.324219 149.144531 205.609375 148.109375 197.1875 C 146.945312 188.375 124.136719 179.175781 125.695312 172.4375 C 127.507812 164.535156 160.289062 157.148438 167.933594 155.074219 C 170.65625 154.296875 171.433594 154.167969 173.765625 154.296875 C 177.003906 154.425781 181.929688 155.074219 185.425781 156.761719 C 188.925781 158.445312 192.421875 161.8125 194.496094 164.273438 C 195.921875 166.089844 196.699219 167.773438 197.476562 169.585938 C 198.253906 171.402344 198.773438 173.085938 199.03125 175.289062 C 199.292969 178.527344 199.292969 183.453125 197.996094 187.082031 C 196.699219 190.707031 193.71875 194.726562 191.515625 197.058594 C 189.960938 198.742188 186.722656 200.554688 186.722656 200.554688 " clip-rule="nonzero"/></clipPath><clipPath id="ab5d6042b4"><path d="M 55 113 L 134 113 L 134 213.382812 L 55 213.382812 Z M 55 113 " clip-rule="nonzero"/></clipPath><clipPath id="ea2ef29bae"><path d="M 99.128906 158.703125 C 100.6875 161.941406 101.332031 152.613281 103.796875 148.984375 C 106.386719 145.226562 111.179688 141.082031 115.457031 140.042969 C 119.601562 139.007812 125.953125 139.527344 128.804688 142.378906 C 132.300781 145.875 134.117188 155.59375 132.5625 162.332031 C 130.617188 170.753906 113.511719 187.46875 113.773438 187.726562 C 113.902344 187.859375 116.234375 183.582031 117.660156 183.582031 C 119.34375 183.582031 121.804688 186.949219 122.972656 189.152344 C 124.136719 191.355469 124.914062 194.207031 124.914062 196.667969 C 124.914062 199.128906 124.65625 201.851562 123.359375 204.183594 C 121.804688 207.035156 118.308594 210.664062 114.9375 211.957031 C 111.699219 213.253906 107.421875 213.253906 103.535156 212.21875 C 98.613281 210.921875 93.039062 207.035156 88.375 203.148438 C 83.324219 198.871094 73.476562 190.191406 74.640625 186.820312 C 75.679688 183.710938 92.652344 181.898438 93.171875 182.933594 C 93.558594 183.839844 86.691406 189.800781 82.15625 190.707031 C 76.324219 191.875 64.921875 189.671875 60.648438 185.914062 C 57.277344 182.933594 56.890625 178.011719 56.113281 172.566406 C 54.945312 164.535156 56.5 150.929688 57.539062 142.117188 C 58.316406 135.378906 58.316406 129.160156 61.035156 124.367188 C 63.628906 119.832031 68.421875 114.90625 72.828125 113.613281 C 76.84375 112.445312 81.636719 114.390625 86.171875 115.683594 C 91.097656 117.109375 96.410156 119.960938 101.203125 122.292969 C 105.738281 124.496094 111.441406 126.699219 114.160156 129.03125 C 115.847656 130.585938 116.753906 131.621094 117.53125 133.695312 C 118.695312 136.546875 119.734375 141.46875 119.085938 145.097656 C 118.4375 148.597656 115.457031 152.871094 113.382812 155.074219 C 111.828125 156.628906 110.535156 157.539062 108.460938 158.183594 C 105.480469 159.222656 100.554688 160 97.058594 159.09375 C 93.558594 158.183594 89.542969 155.074219 87.46875 152.871094 C 85.914062 151.1875 85.136719 149.890625 84.617188 147.691406 C 83.839844 144.710938 83.710938 139.265625 84.359375 136.289062 C 84.878906 134.214844 85.527344 132.789062 86.949219 131.105469 C 88.894531 128.773438 93.429688 125.664062 96.28125 124.496094 C 98.351562 123.71875 99.777344 123.460938 101.980469 123.71875 C 105.089844 124.105469 110.144531 126.050781 112.734375 127.734375 C 114.550781 128.902344 115.585938 130.066406 116.625 132.011719 C 118.046875 134.730469 119.34375 140.042969 119.34375 143.15625 C 119.34375 145.355469 118.957031 146.914062 117.917969 148.855469 C 116.492188 151.578125 113.253906 155.59375 110.144531 157.277344 C 107.035156 158.960938 102.109375 159.480469 99 159.351562 C 96.796875 159.222656 95.632812 158.703125 93.429688 157.667969 C 89.542969 155.851562 78.917969 151.835938 78.527344 148.335938 C 78.140625 145.355469 85.914062 142.507812 87.597656 138.621094 C 89.414062 134.601562 87.988281 124.238281 88.765625 124.238281 C 89.671875 124.238281 92.523438 135.511719 92.78125 141.988281 C 93.171875 149.890625 92.78125 166.738281 89.28125 168.164062 C 86.820312 169.199219 82.414062 161.164062 78.527344 160.386719 C 74.511719 159.609375 65.832031 164.273438 65.570312 163.628906 C 65.3125 162.980469 72.566406 157.667969 76.84375 156.761719 C 81.507812 155.851562 88.246094 156.371094 92.652344 158.960938 C 97.316406 161.683594 99.261719 169.070312 103.664062 173.476562 C 108.460938 178.140625 117.269531 182.15625 120.640625 186.042969 C 122.714844 188.375 123.75 190.320312 124.398438 192.78125 C 125.046875 195.113281 125.046875 197.964844 124.527344 200.425781 C 124.007812 202.886719 122.714844 205.480469 121.160156 207.421875 C 119.601562 209.367188 117.269531 211.050781 114.9375 211.957031 C 112.605469 212.867188 109.753906 213.253906 107.292969 212.996094 C 104.832031 212.734375 102.5 211.828125 100.039062 210.402344 C 96.929688 208.589844 92.910156 205.867188 90.320312 202.371094 C 87.210938 198.222656 83.710938 192.003906 83.453125 186.5625 C 83.191406 180.859375 85.785156 174.640625 89.023438 168.679688 C 93.039062 161.164062 103.535156 145.355469 107.554688 146.136719 C 110.664062 146.78125 109.496094 158.960938 112.734375 162.851562 C 115.585938 166.21875 124.527344 166.347656 124.65625 169.199219 C 124.914062 173.34375 107.683594 184.230469 100.554688 185.914062 C 95.761719 186.949219 91.226562 185.394531 87.46875 183.839844 C 84.230469 182.414062 81.121094 179.695312 79.175781 177.363281 C 77.621094 175.546875 76.585938 173.992188 76.066406 171.789062 C 75.546875 169.070312 75.679688 164.792969 76.972656 162.074219 C 78.269531 159.351562 81.25 156.628906 83.96875 155.464844 C 86.691406 154.296875 90.839844 154.425781 93.558594 155.203125 C 95.761719 155.851562 99.128906 158.703125 99.128906 158.703125 " clip-rule="nonzero"/></clipPath><clipPath id="683a6b4b4e"><path d="M 187 229 L 251 229 L 251 304 L 187 304 Z M 187 229 " clip-rule="nonzero"/></clipPath><clipPath id="8ce9d2bbd2"><path d="M 208.75 231.78125 C 215.875 237.484375 223.132812 244.480469 222.484375 248.367188 C 221.707031 252.253906 211.210938 253.679688 208.75 257.828125 C 206.417969 261.585938 208.101562 271.691406 207.066406 271.820312 C 205.898438 271.949219 202.660156 261.324219 202.140625 257.957031 C 201.882812 256.144531 201.882812 255.105469 202.269531 253.550781 C 202.660156 251.476562 203.4375 248.886719 205.121094 246.941406 C 207.066406 244.609375 211.210938 241.890625 214.191406 241.113281 C 216.652344 240.464844 219.246094 240.722656 221.449219 241.371094 C 223.652344 242.019531 225.984375 243.445312 227.667969 245 C 229.351562 246.683594 230.390625 248.496094 231.683594 251.089844 C 233.757812 255.234375 235.183594 263.011719 238.164062 267.804688 C 240.882812 272.082031 246.585938 275.578125 248.527344 278.6875 C 249.695312 280.503906 250.214844 281.667969 250.472656 283.613281 C 250.863281 286.332031 250.863281 291 249.4375 293.976562 C 248.011719 296.957031 245.160156 300.066406 242.179688 301.625 C 239.199219 303.179688 235.054688 303.695312 231.8125 303.179688 C 228.574219 302.660156 224.6875 300.199219 222.613281 298.382812 C 221.058594 297.089844 220.28125 295.921875 219.632812 293.976562 C 218.726562 291.386719 217.820312 286.851562 218.597656 283.613281 C 219.375 280.375 221.964844 276.617188 223.910156 274.671875 C 225.335938 273.246094 226.5 272.597656 228.445312 271.949219 C 231.167969 271.171875 236.21875 270.785156 238.941406 271.304688 C 240.882812 271.691406 242.179688 272.339844 243.734375 273.636719 C 245.9375 275.449219 249.046875 278.816406 250.085938 281.929688 C 251.121094 285.039062 251.121094 289.183594 250.085938 292.292969 C 249.046875 295.402344 246.457031 298.773438 243.734375 300.585938 C 241.015625 302.402344 236.996094 303.566406 233.628906 303.4375 C 230.390625 303.308594 226.632812 301.625 223.910156 299.550781 C 220.929688 297.347656 219.117188 293.976562 216.652344 290.351562 C 213.414062 285.554688 206.417969 273.246094 207.066406 272.726562 C 207.714844 272.339844 218.207031 283.613281 217.949219 283.871094 C 217.691406 284.128906 207.453125 278.558594 204.863281 274.152344 C 202.140625 269.75 201.882812 262.234375 202.140625 257.308594 C 202.402344 253.421875 203.046875 249.664062 205.121094 246.941406 C 207.195312 244.222656 211.210938 241.890625 214.191406 241.113281 C 216.652344 240.464844 219.246094 240.722656 221.449219 241.371094 C 223.652344 242.019531 225.984375 243.445312 227.667969 245 C 229.351562 246.683594 230.90625 249.277344 231.683594 251.089844 C 232.203125 252.386719 232.722656 254.199219 232.332031 254.71875 C 232.074219 254.976562 231.425781 254.589844 231.167969 254.976562 C 230 256.402344 232.980469 267.15625 230.390625 270.914062 C 227.796875 274.671875 220.542969 277.910156 216.007812 277.523438 C 211.472656 277.132812 206.289062 271.949219 203.046875 268.191406 C 200.199219 264.824219 199.550781 259.902344 197.089844 256.53125 C 194.757812 253.292969 190.222656 251.476562 188.796875 248.367188 C 187.5 245.519531 187.242188 241.761719 188.019531 238.910156 C 188.796875 236.058594 191.386719 232.820312 193.589844 231.265625 C 195.402344 229.96875 197.476562 229.191406 199.679688 229.191406 C 202.402344 229.0625 208.75 231.78125 208.75 231.78125 " clip-rule="nonzero"/></clipPath><clipPath id="00cf291095"><path d="M 296 57 L 321.996094 57 L 321.996094 83.941406 L 296 83.941406 Z M 296 57 " clip-rule="nonzero"/></clipPath><clipPath id="2bead88cd8"><path d="M 321.480469 66.964844 C 321.480469 75 320.570312 77.203125 319.277344 78.757812 C 317.980469 80.3125 316.167969 81.867188 314.351562 82.644531 C 312.539062 83.421875 310.207031 83.808594 308.261719 83.679688 C 306.191406 83.550781 303.988281 82.902344 302.300781 81.867188 C 300.617188 80.828125 299.0625 79.144531 298.027344 77.460938 C 296.988281 75.777344 296.210938 73.574219 296.082031 71.5 C 295.953125 69.558594 296.472656 67.222656 297.25 65.410156 C 298.027344 63.597656 299.453125 61.78125 301.007812 60.617188 C 302.5625 59.320312 304.765625 58.414062 306.707031 58.023438 C 308.652344 57.636719 310.984375 57.765625 312.925781 58.414062 C 314.871094 59.0625 318.238281 61.652344 318.238281 61.652344 " clip-rule="nonzero"/></clipPath><clipPath id="b8befefb00"><path d="M 292 43 L 345 43 L 345 80 L 292 80 Z M 292 43 " clip-rule="nonzero"/></clipPath><clipPath id="12327f8fe7"><path d="M 298.285156 57.507812 C 317.332031 49.730469 322.257812 51.417969 325.105469 53.621094 C 327.828125 55.691406 329.511719 59.578125 330.417969 62.558594 C 331.328125 65.152344 331.714844 68.132812 331.066406 70.59375 C 330.417969 73.054688 328.476562 75.777344 326.792969 77.203125 C 325.367188 78.367188 323.8125 79.144531 321.996094 79.273438 C 319.792969 79.535156 316.167969 78.757812 314.222656 77.589844 C 312.667969 76.683594 311.371094 75.257812 310.59375 73.832031 C 309.6875 72.40625 309.039062 70.722656 309.167969 68.78125 C 309.300781 65.929688 310.722656 61.652344 313.058594 58.15625 C 315.90625 53.75 323.421875 47.660156 326.53125 45.457031 C 327.957031 44.417969 328.476562 44.03125 329.902344 43.773438 C 331.84375 43.382812 335.085938 43.125 337.289062 43.902344 C 339.488281 44.679688 341.820312 46.492188 343.117188 48.4375 C 344.414062 50.378906 344.933594 53.75 344.933594 55.691406 C 344.933594 57.117188 344.671875 58.023438 344.023438 59.320312 C 343.117188 61.003906 340.785156 63.597656 339.101562 64.761719 C 337.933594 65.539062 337.027344 65.929688 335.601562 66.058594 C 333.660156 66.316406 330.417969 66.1875 328.347656 65.152344 C 326.273438 64.113281 324.070312 62.042969 323.035156 59.96875 C 321.996094 57.894531 321.738281 54.65625 321.996094 52.710938 C 322.128906 51.285156 322.515625 50.25 323.292969 49.085938 C 324.460938 47.398438 327.050781 45.066406 328.734375 44.160156 C 330.03125 43.511719 330.9375 43.253906 332.363281 43.253906 C 334.308594 43.253906 337.675781 44.03125 339.488281 44.9375 C 340.785156 45.585938 341.5625 46.363281 342.339844 47.527344 C 343.507812 49.214844 344.933594 52.0625 344.933594 54.398438 C 344.933594 56.730469 343.765625 59.710938 342.730469 61.394531 C 341.953125 62.558594 341.433594 63.207031 340.136719 64.113281 C 338.195312 65.539062 333.140625 65.800781 331.195312 67.871094 C 329.511719 69.6875 330.289062 73.3125 328.734375 75.257812 C 327.179688 77.203125 324.460938 78.886719 321.996094 79.273438 C 319.535156 79.664062 316.167969 78.757812 314.222656 77.589844 C 312.667969 76.683594 311.371094 75.257812 310.59375 73.832031 C 309.6875 72.40625 308.78125 70.074219 309.167969 68.78125 C 309.558594 67.613281 310.722656 66.445312 312.148438 66.058594 C 314.480469 65.410156 322.644531 67.09375 322.773438 68.261719 C 322.90625 69.558594 315.648438 72.277344 312.28125 73.703125 C 309.300781 75 306.058594 76.554688 303.597656 76.8125 C 301.785156 77.070312 300.230469 76.8125 298.804688 76.292969 C 297.378906 75.777344 295.824219 74.871094 294.785156 73.703125 C 293.75 72.535156 292.84375 70.980469 292.453125 69.425781 C 292.066406 67.871094 291.9375 66.1875 292.324219 64.632812 C 292.714844 63.078125 293.363281 61.523438 294.398438 60.355469 C 295.433594 59.191406 298.285156 57.507812 298.285156 57.507812 " clip-rule="nonzero"/></clipPath><clipPath id="bb6b3fa697"><path d="M 275 35 L 358 35 L 358 80 L 275 80 Z M 275 35 " clip-rule="nonzero"/></clipPath><clipPath id="4a0a1384f9"><path d="M 317.851562 62.171875 C 333.140625 47.269531 333.53125 42.734375 336.25 40.402344 C 339.101562 37.941406 344.542969 36.125 347.523438 36.125 C 349.597656 36.125 351.28125 37.035156 352.707031 37.941406 C 354.261719 38.976562 355.6875 40.273438 356.464844 41.957031 C 357.5 44.03125 358.019531 47.527344 357.5 49.992188 C 356.980469 52.453125 355.816406 54.914062 353.09375 56.730469 C 348.171875 60.097656 335.601562 59.320312 326.144531 62.171875 C 315 65.539062 298.542969 75.777344 290.898438 76.941406 C 287.402344 77.460938 285.199219 77.203125 282.867188 76.164062 C 280.535156 75.128906 278.070312 72.796875 276.90625 70.59375 C 275.738281 68.390625 275.351562 64.890625 275.480469 62.6875 C 275.609375 61.132812 276 60.097656 276.777344 58.800781 C 277.941406 56.988281 280.792969 54.265625 282.605469 53.230469 C 283.902344 52.453125 284.9375 52.0625 286.496094 52.0625 C 288.695312 51.933594 292.195312 52.453125 294.398438 53.75 C 296.601562 55.042969 298.804688 57.507812 299.710938 59.839844 C 300.617188 62.171875 300.617188 65.800781 300.230469 67.871094 C 299.96875 69.425781 299.453125 70.464844 298.542969 71.628906 C 297.25 73.3125 294.65625 75.648438 292.195312 76.554688 C 289.734375 77.460938 286.496094 77.460938 284.03125 76.683594 C 281.570312 75.90625 278.980469 73.832031 277.554688 71.757812 C 276.128906 69.6875 275.222656 66.707031 275.351562 64.113281 C 275.480469 61.523438 277.035156 58.285156 278.332031 56.46875 C 279.238281 55.175781 279.625 54.914062 281.441406 53.878906 C 287.917969 50.25 317.332031 38.589844 330.160156 36.515625 C 338.195312 35.21875 345.710938 35.089844 350.246094 36.773438 C 353.226562 37.8125 355.296875 40.015625 356.464844 41.957031 C 357.5 43.511719 357.761719 45.457031 357.761719 47.269531 C 357.761719 49.085938 357.5 50.898438 356.59375 52.582031 C 355.425781 54.527344 352.316406 57.117188 350.632812 58.023438 C 349.726562 58.542969 348.429688 59.0625 348.042969 58.671875 C 347.652344 58.285156 348.820312 55.691406 348.691406 55.691406 C 348.429688 55.5625 346.746094 61.523438 344.671875 64.503906 C 341.820312 68.390625 335.214844 74.09375 332.105469 76.425781 C 330.417969 77.71875 329.511719 78.496094 327.957031 78.886719 C 326.53125 79.273438 324.847656 79.535156 323.164062 79.144531 C 321.21875 78.628906 318.5 77.203125 317.074219 75.515625 C 315.648438 73.703125 314.742188 70.851562 314.871094 68.648438 C 315 66.445312 317.851562 62.171875 317.851562 62.171875 " clip-rule="nonzero"/></clipPath><clipPath id="164dcc1ea6"><path d="M 112 103 L 168 103 L 168 157 L 112 157 Z M 112 103 " clip-rule="nonzero"/></clipPath><clipPath id="a5a82ca142"><path d="M 117.011719 138.359375 C 137.484375 120.351562 145.386719 107.390625 150.699219 104.414062 C 153.292969 102.988281 155.625 103.117188 157.570312 103.246094 C 158.992188 103.375 159.902344 103.632812 161.066406 104.414062 C 162.75 105.449219 165.082031 107.390625 165.992188 109.464844 C 166.898438 111.539062 167.027344 114.648438 166.769531 116.59375 C 166.636719 117.886719 166.25 118.792969 165.472656 119.960938 C 164.304688 121.515625 162.105469 123.71875 160.03125 124.496094 C 157.957031 125.273438 154.847656 125.402344 153.035156 125.015625 C 151.609375 124.753906 150.699219 124.367188 149.664062 123.460938 C 148.109375 122.292969 146.164062 119.570312 145.386719 117.886719 C 144.871094 116.59375 144.609375 115.683594 144.742188 114.257812 C 144.871094 112.316406 145.648438 109.335938 147.074219 107.523438 C 148.367188 105.707031 151.089844 104.152344 152.902344 103.503906 C 154.199219 102.988281 155.105469 102.988281 156.402344 103.117188 C 158.347656 103.375 161.324219 104.28125 163.011719 105.707031 C 164.695312 107.132812 166.25 109.59375 166.769531 111.796875 C 167.285156 114 167.285156 116.074219 165.992188 118.792969 C 163.269531 124.753906 151.21875 136.417969 144.351562 142.894531 C 138.910156 147.949219 133.207031 153.132812 128.804688 155.203125 C 126.082031 156.5 124.007812 157.148438 121.675781 156.890625 C 119.472656 156.628906 116.753906 155.203125 115.199219 153.519531 C 113.644531 151.835938 112.734375 148.855469 112.605469 146.78125 C 112.476562 145.097656 112.996094 143.414062 113.773438 141.988281 C 114.550781 140.5625 117.011719 138.359375 117.011719 138.359375 " clip-rule="nonzero"/></clipPath><clipPath id="6a58735ccb"><path d="M 205.121094 37 L 326 37 L 326 66 L 205.121094 66 Z M 205.121094 37 " clip-rule="nonzero"/></clipPath><clipPath id="f541425a23"><path d="M 213.933594 37.8125 C 240.238281 36.515625 247.105469 38.847656 256.953125 39.496094 C 271.59375 40.53125 301.394531 38.199219 312.28125 40.273438 C 317.074219 41.179688 320.054688 42.476562 322.128906 44.03125 C 323.421875 44.9375 323.941406 45.84375 324.589844 47.269531 C 325.367188 49.214844 325.882812 52.84375 325.753906 54.914062 C 325.625 56.339844 325.367188 57.375 324.589844 58.542969 C 323.421875 60.226562 321.089844 62.820312 318.886719 63.855469 C 316.683594 64.890625 313.574219 65.28125 311.242188 64.761719 C 308.910156 64.246094 306.191406 62.558594 304.632812 60.746094 C 303.078125 58.800781 301.785156 55.953125 301.65625 53.488281 C 301.523438 51.027344 302.691406 47.917969 303.726562 46.105469 C 304.503906 44.808594 305.152344 44.03125 306.449219 43.253906 C 308.261719 42.085938 311.371094 40.792969 313.835938 40.792969 C 316.296875 40.792969 319.277344 41.828125 321.21875 43.253906 C 323.164062 44.679688 324.847656 47.269531 325.496094 49.601562 C 326.144531 51.933594 326.015625 55.042969 325.105469 57.375 C 324.199219 59.710938 321.738281 62.171875 320.054688 63.335938 C 318.886719 64.246094 318.5 64.375 316.425781 64.761719 C 307.875 66.1875 263.171875 63.46875 246.585938 61.394531 C 237.386719 60.226562 231.167969 57.117188 225.207031 56.859375 C 220.929688 56.597656 217.300781 58.542969 214.191406 58.023438 C 211.730469 57.507812 209.269531 56.46875 207.714844 54.785156 C 206.160156 53.101562 205.121094 50.25 205.121094 48.046875 C 205.121094 45.84375 206.160156 42.996094 207.582031 41.308594 C 209.007812 39.625 213.933594 37.8125 213.933594 37.8125 " clip-rule="nonzero"/></clipPath><clipPath id="1d555e3de5"><path d="M 24 94 L 56 94 L 56 128 L 24 128 Z M 24 94 " clip-rule="nonzero"/></clipPath><clipPath id="37b07c2b6a"><path d="M 28.125 109.984375 C 34.992188 103.375 35.640625 100.136719 37.453125 98.453125 C 39.136719 96.898438 41.601562 95.601562 43.285156 95.082031 C 44.449219 94.695312 45.359375 94.695312 46.652344 94.953125 C 48.335938 95.34375 51.058594 96.378906 52.613281 97.804688 C 54.167969 99.230469 55.464844 101.691406 55.722656 103.765625 C 55.984375 105.835938 55.335938 108.6875 54.558594 110.371094 C 54.039062 111.539062 53.261719 112.1875 52.484375 112.964844 C 51.707031 113.742188 50.800781 114.519531 49.632812 114.90625 C 47.949219 115.554688 45.097656 116.074219 43.023438 115.554688 C 40.953125 115.039062 38.621094 113.351562 37.324219 112.058594 C 36.417969 111.148438 36.027344 110.371094 35.640625 109.078125 C 35.121094 107.390625 34.992188 104.28125 35.378906 102.46875 C 35.640625 101.171875 36.027344 100.394531 36.804688 99.359375 C 37.972656 97.933594 40.175781 96.121094 42.117188 95.472656 C 44.191406 94.824219 46.914062 94.824219 48.855469 95.472656 C 50.800781 96.121094 52.871094 97.804688 54.039062 99.617188 C 55.207031 101.433594 55.722656 104.28125 55.722656 106.097656 C 55.722656 107.390625 55.722656 108.039062 55.074219 109.335938 C 53.910156 112.058594 49.761719 117.757812 46.523438 120.867188 C 43.542969 123.71875 39.785156 126.570312 36.675781 127.347656 C 34.214844 127.863281 31.621094 127.476562 29.679688 126.441406 C 27.734375 125.402344 25.792969 123.070312 25.015625 120.996094 C 24.238281 118.925781 24.625 115.816406 25.273438 113.871094 C 25.792969 112.316406 28.125 109.984375 28.125 109.984375 " clip-rule="nonzero"/></clipPath><clipPath id="2aadbfd38a"><path d="M 73 185 L 136.835938 185 L 136.835938 222 L 73 222 Z M 73 185 " clip-rule="nonzero"/></clipPath><clipPath id="1af4479e05"><path d="M 87.859375 186.5625 C 119.472656 198.222656 125.5625 198.09375 128.671875 199.128906 C 130.226562 199.648438 130.875 200.039062 131.914062 200.945312 C 133.339844 202.242188 135.410156 205.21875 136.058594 207.164062 C 136.578125 208.460938 136.449219 209.625 136.320312 210.921875 C 136.1875 212.085938 136.1875 213.253906 135.539062 214.550781 C 134.632812 216.363281 132.300781 218.957031 130.617188 220.121094 C 129.449219 220.898438 128.542969 221.289062 127.117188 221.417969 C 125.175781 221.675781 121.804688 221.546875 119.734375 220.511719 C 117.660156 219.472656 115.585938 217.011719 114.550781 215.328125 C 113.773438 214.160156 113.644531 212.996094 113.382812 211.828125 C 113.125 210.664062 112.996094 209.496094 113.382812 208.070312 C 113.902344 206.128906 115.328125 203.148438 117.011719 201.59375 C 118.695312 200.039062 121.804688 198.871094 123.75 198.484375 C 125.175781 198.222656 126.210938 198.351562 127.507812 198.742188 C 129.449219 199.390625 132.300781 201.332031 133.726562 202.757812 C 134.761719 203.796875 135.28125 204.574219 135.671875 205.996094 C 136.1875 207.941406 136.320312 211.441406 135.929688 213.382812 C 135.671875 214.808594 135.023438 215.714844 134.246094 216.753906 C 133.597656 217.789062 132.820312 218.566406 131.652344 219.34375 C 129.96875 220.378906 127.25 221.546875 124.65625 221.675781 C 121.546875 221.933594 117.660156 220.640625 114.289062 219.863281 C 110.921875 219.085938 108.460938 218.308594 104.441406 216.753906 C 97.574219 214.03125 81.636719 207.941406 76.972656 203.664062 C 74.640625 201.59375 73.734375 199.519531 73.34375 197.316406 C 72.957031 195.113281 73.734375 192.261719 74.902344 190.320312 C 76.066406 188.375 78.398438 186.5625 80.601562 185.914062 C 82.804688 185.265625 87.859375 186.5625 87.859375 186.5625 " clip-rule="nonzero"/></clipPath><clipPath id="f0194d1ca1"><path d="M 226 279 L 261 279 L 261 321 L 226 321 Z M 226 279 " clip-rule="nonzero"/></clipPath><clipPath id="fede33ecdf"><path d="M 243.605469 282.574219 C 254.230469 296.050781 258.375 302.011719 258.117188 302.269531 C 257.859375 302.402344 254.230469 299.03125 254.230469 299.03125 C 254.230469 299.03125 256.304688 300.070312 257.210938 301.105469 C 258.507812 302.53125 260.0625 305.121094 260.449219 307.324219 C 260.839844 309.527344 259.933594 312.636719 259.152344 314.320312 C 258.636719 315.488281 257.859375 316.265625 256.953125 317.042969 C 256.042969 317.820312 255.265625 318.597656 253.972656 318.984375 C 252.15625 319.632812 248.917969 319.894531 246.972656 319.632812 C 245.679688 319.503906 244.640625 319.117188 243.605469 318.339844 C 242.050781 317.171875 239.976562 314.582031 239.199219 312.894531 C 238.550781 311.730469 238.421875 310.695312 238.421875 309.398438 C 238.550781 307.453125 239.589844 304.34375 240.496094 302.660156 C 241.144531 301.492188 241.792969 300.847656 242.957031 300.070312 C 244.511719 299.03125 247.75 297.996094 249.695312 297.867188 C 250.992188 297.734375 252.027344 297.996094 253.195312 298.511719 C 254.878906 299.289062 257.597656 301.363281 258.765625 302.917969 C 259.542969 303.957031 259.933594 304.863281 260.191406 306.160156 C 260.449219 307.972656 260.320312 311.339844 259.671875 313.15625 C 259.285156 314.449219 258.765625 315.359375 257.730469 316.265625 C 256.304688 317.5625 253.839844 319.375 251.640625 319.761719 C 249.4375 320.152344 246.585938 320.28125 244.640625 318.855469 C 241.921875 317.042969 241.144531 311.082031 238.550781 307.324219 C 235.703125 303.179688 230.128906 298.511719 228.316406 295.273438 C 227.277344 293.460938 226.890625 292.292969 226.761719 290.738281 C 226.632812 289.183594 226.632812 287.5 227.410156 286.074219 C 228.316406 284.261719 230.519531 281.929688 232.332031 280.890625 C 233.757812 280.113281 235.3125 279.726562 236.996094 279.855469 C 239.070312 279.984375 243.605469 282.574219 243.605469 282.574219 " clip-rule="nonzero"/></clipPath><clipPath id="93ebdf42d2"><path d="M 1 31.398438 L 374.46875 31.398438 L 374.46875 343.671875 L 1 343.671875 Z M 1 31.398438 " clip-rule="nonzero"/></clipPath></defs><g clip-path="url(#10c59b7baf)"><g clip-path="url(#81725e7ca2)"><path fill="#ffffff" d="M 110.144531 138.359375 L 168.453125 138.359375 L 168.453125 196.667969 L 110.144531 196.667969 Z M 110.144531 138.359375 " fill-opacity="1" fill-rule="nonzero"/></g></g><g clip-path="url(#4a7237e0f1)"><g clip-path="url(#5b2ad14f0a)"><path fill="#ffffff" d="M 101.464844 44.289062 L 249.175781 44.289062 L 249.175781 202.371094 L 101.464844 202.371094 Z M 101.464844 44.289062 " fill-opacity="1" fill-rule="nonzero"/></g></g><g clip-path="url(#4334e138e9)"><g clip-path="url(#25d353a452)"><path fill="#ffffff" d="M 155.496094 39.238281 L 327.828125 39.238281 L 327.828125 201.203125 L 155.496094 201.203125 Z M 155.496094 39.238281 " fill-opacity="1" fill-rule="nonzero"/></g></g><g clip-path="url(#9d97f0a58f)"><g clip-path="url(#2f5bb11e32)"><path fill="#ffffff" d="M 96.410156 149.113281 L 233.757812 149.113281 L 233.757812 270.914062 L 96.410156 270.914062 Z M 96.410156 149.113281 " fill-opacity="1" fill-rule="nonzero"/></g></g><g clip-path="url(#ab5d6042b4)"><g clip-path="url(#ea2ef29bae)"><path fill="#ffffff" d="M 50.929688 108.429688 L 137.742188 108.429688 L 137.742188 218.566406 L 50.929688 218.566406 Z M 50.929688 108.429688 " fill-opacity="1" fill-rule="nonzero"/></g></g><g clip-path="url(#683a6b4b4e)"><g clip-path="url(#8ce9d2bbd2)"><path fill="#ffffff" d="M 182.835938 224.007812 L 255.398438 224.007812 L 255.398438 308.230469 L 182.835938 308.230469 Z M 182.835938 224.007812 " fill-opacity="1" fill-rule="nonzero"/></g></g><path stroke-linecap="butt" transform="matrix(1.117647, -0.668898, 0.665414, 1.111826, 294.379644, 70.16785)" fill="none" stroke-linejoin="miter" d="M 0.000373466 4.999849 L 38.799384 4.99936 " stroke="#ffffff" stroke-width="10" stroke-opacity="1" stroke-miterlimit="4"/><g clip-path="url(#00cf291095)"><g clip-path="url(#2bead88cd8)"><path fill="#ffffff" d="M 290.898438 52.84375 L 327.179688 52.84375 L 327.179688 89.121094 L 290.898438 89.121094 Z M 290.898438 52.84375 " fill-opacity="1" fill-rule="nonzero"/></g></g><g clip-path="url(#b8befefb00)"><g clip-path="url(#12327f8fe7)"><path fill="#ffffff" d="M 287.140625 38.070312 L 350.632812 38.070312 L 350.632812 84.71875 L 287.140625 84.71875 Z M 287.140625 38.070312 " fill-opacity="1" fill-rule="nonzero"/></g></g><g clip-path="url(#bb6b3fa697)"><g clip-path="url(#4a0a1384f9)"><path fill="#ffffff" d="M 270.167969 30.945312 L 363.460938 30.945312 L 363.460938 84.070312 L 270.167969 84.070312 Z M 270.167969 30.945312 " fill-opacity="1" fill-rule="nonzero"/></g></g><g clip-path="url(#164dcc1ea6)"><g clip-path="url(#a5a82ca142)"><path fill="#ffffff" d="M 107.421875 97.933594 L 172.210938 97.933594 L 172.210938 162.71875 L 107.421875 162.71875 Z M 107.421875 97.933594 " fill-opacity="1" fill-rule="nonzero"/></g></g><g clip-path="url(#6a58735ccb)"><g clip-path="url(#f541425a23)"><path fill="#ffffff" d="M 199.9375 31.203125 L 330.808594 31.203125 L 330.808594 70.074219 L 199.9375 70.074219 Z M 199.9375 31.203125 " fill-opacity="1" fill-rule="nonzero"/></g></g><g clip-path="url(#1d555e3de5)"><g clip-path="url(#37b07c2b6a)"><path fill="#ffffff" d="M 19.832031 89.769531 L 61.296875 89.769531 L 61.296875 132.53125 L 19.832031 132.53125 Z M 19.832031 89.769531 " fill-opacity="1" fill-rule="nonzero"/></g></g><g clip-path="url(#2aadbfd38a)"><g clip-path="url(#1af4479e05)"><path fill="#ffffff" d="M 68.164062 180.730469 L 142.019531 180.730469 L 142.019531 227.378906 L 68.164062 227.378906 Z M 68.164062 180.730469 " fill-opacity="1" fill-rule="nonzero"/></g></g><g clip-path="url(#f0194d1ca1)"><g clip-path="url(#fede33ecdf)"><path fill="#ffffff" d="M 221.578125 274.671875 L 265.632812 274.671875 L 265.632812 325.207031 L 221.578125 325.207031 Z M 221.578125 274.671875 " fill-opacity="1" fill-rule="nonzero"/></g></g><g clip-path="url(#93ebdf42d2)"><path fill="#000556" d="M 372.714844 42.222656 L 218.871094 194.9375 L 273.90625 334.796875 C 274.953125 337.464844 274.003906 340.5 271.621094 342.09375 C 270.589844 342.78125 269.414062 343.117188 268.238281 343.117188 C 266.703125 343.117188 265.175781 342.535156 264.003906 341.40625 L 187.835938 267.714844 L 187.828125 267.710938 L 53.5 198.882812 L 53.488281 198.875 L 53.453125 198.859375 C 53.375 198.820312 53.300781 198.78125 53.226562 198.734375 C 53.214844 198.730469 53.203125 198.722656 53.191406 198.714844 C 53.183594 198.710938 53.171875 198.707031 53.160156 198.695312 C 53.117188 198.671875 53.078125 198.648438 53.035156 198.621094 C 53.011719 198.609375 52.988281 198.59375 52.960938 198.570312 C 52.929688 198.558594 52.898438 198.535156 52.867188 198.511719 C 52.855469 198.507812 52.835938 198.5 52.824219 198.484375 C 52.816406 198.484375 52.804688 198.476562 52.796875 198.460938 C 52.792969 198.460938 52.785156 198.457031 52.78125 198.449219 C 52.769531 198.449219 52.769531 198.445312 52.761719 198.441406 L 52.753906 198.4375 C 52.75 198.4375 52.75 198.433594 52.75 198.433594 C 52.738281 198.425781 52.722656 198.417969 52.710938 198.402344 C 52.699219 198.398438 52.6875 198.390625 52.679688 198.378906 C 52.664062 198.371094 52.644531 198.359375 52.625 198.339844 C 52.574219 198.304688 52.515625 198.265625 52.464844 198.21875 C 52.453125 198.210938 52.441406 198.199219 52.433594 198.1875 C 52.429688 198.1875 52.425781 198.1875 52.421875 198.179688 C 52.40625 198.175781 52.394531 198.167969 52.382812 198.15625 C 52.375 198.148438 52.363281 198.140625 52.355469 198.132812 C 52.332031 198.117188 52.3125 198.097656 52.289062 198.074219 C 52.277344 198.070312 52.265625 198.058594 52.253906 198.042969 C 52.246094 198.042969 52.234375 198.035156 52.226562 198.019531 C 52.195312 197.992188 52.15625 197.964844 52.125 197.929688 C 52.109375 197.914062 52.09375 197.902344 52.078125 197.882812 C 52.070312 197.882812 52.058594 197.871094 52.050781 197.859375 C 52.042969 197.851562 52.03125 197.84375 52.023438 197.835938 L 52.015625 197.832031 C 52.011719 197.824219 51.996094 197.816406 51.988281 197.808594 L 51.972656 197.789062 C 51.957031 197.773438 51.941406 197.757812 51.929688 197.742188 C 51.917969 197.730469 51.90625 197.71875 51.898438 197.707031 C 51.859375 197.671875 51.820312 197.632812 51.785156 197.589844 C 51.777344 197.585938 51.773438 197.578125 51.769531 197.574219 C 51.75 197.558594 51.738281 197.542969 51.71875 197.527344 C 51.703125 197.507812 51.691406 197.492188 51.679688 197.476562 C 51.640625 197.4375 51.605469 197.394531 51.574219 197.355469 C 51.539062 197.316406 51.507812 197.273438 51.476562 197.226562 C 51.460938 197.214844 51.449219 197.199219 51.441406 197.1875 C 51.410156 197.15625 51.382812 197.121094 51.359375 197.082031 C 51.304688 197.011719 51.253906 196.9375 51.203125 196.863281 C 51.152344 196.785156 51.097656 196.710938 51.046875 196.628906 C 50.964844 196.496094 50.890625 196.355469 50.816406 196.21875 C 50.796875 196.183594 50.78125 196.140625 50.761719 196.105469 C 50.71875 196.015625 50.679688 195.929688 50.636719 195.835938 C 50.609375 195.777344 50.585938 195.71875 50.566406 195.660156 C 50.5625 195.65625 50.5625 195.65625 50.5625 195.648438 C 50.539062 195.59375 50.515625 195.53125 50.496094 195.476562 C 50.496094 195.476562 50.496094 195.476562 50.496094 195.472656 C 50.484375 195.445312 50.46875 195.410156 50.464844 195.378906 C 50.433594 195.285156 50.402344 195.1875 50.375 195.089844 C 50.375 195.089844 50.371094 195.085938 50.371094 195.078125 C 50.371094 195.078125 50.371094 195.074219 50.367188 195.070312 C 50.367188 195.066406 50.367188 195.0625 50.363281 195.054688 C 50.339844 194.976562 50.320312 194.898438 50.304688 194.816406 C 50.292969 194.769531 50.28125 194.714844 50.269531 194.664062 C 50.25 194.558594 50.230469 194.453125 50.214844 194.347656 C 50.207031 194.3125 50.199219 194.269531 50.195312 194.230469 C 50.179688 194.105469 50.164062 193.976562 50.160156 193.851562 C 50.144531 193.71875 50.144531 193.585938 50.144531 193.449219 L 50.144531 129.222656 L 7.097656 129.222656 C 4.480469 129.222656 2.160156 127.550781 1.324219 125.074219 C 0.488281 122.597656 1.332031 119.863281 3.414062 118.28125 L 52.550781 80.945312 C 52.59375 80.914062 52.636719 80.882812 52.679688 80.847656 C 52.773438 80.78125 52.867188 80.71875 52.960938 80.65625 C 53.179688 80.523438 53.394531 80.402344 53.621094 80.296875 C 53.695312 80.261719 53.769531 80.226562 53.84375 80.195312 C 53.921875 80.164062 54 80.132812 54.074219 80.101562 C 54.152344 80.074219 54.226562 80.046875 54.304688 80.019531 C 54.375 79.996094 54.441406 79.976562 54.515625 79.957031 C 54.726562 79.890625 54.9375 79.84375 55.152344 79.804688 C 55.246094 79.785156 55.335938 79.773438 55.433594 79.761719 C 55.582031 79.742188 55.726562 79.730469 55.878906 79.722656 C 55.992188 79.714844 56.105469 79.710938 56.21875 79.710938 L 56.238281 79.710938 C 56.382812 79.710938 56.523438 79.714844 56.667969 79.726562 L 56.6875 79.726562 C 56.808594 79.734375 56.929688 79.75 57.046875 79.765625 C 57.089844 79.769531 57.128906 79.773438 57.171875 79.785156 C 57.246094 79.792969 57.328125 79.808594 57.40625 79.828125 C 57.476562 79.835938 57.542969 79.851562 57.613281 79.867188 C 57.617188 79.867188 57.621094 79.867188 57.625 79.871094 C 57.746094 79.894531 57.863281 79.929688 57.984375 79.964844 C 58.113281 80.003906 58.242188 80.050781 58.371094 80.09375 C 58.402344 80.105469 58.429688 80.117188 58.460938 80.125 C 58.578125 80.175781 58.691406 80.222656 58.804688 80.277344 C 58.8125 80.28125 58.820312 80.285156 58.828125 80.289062 C 58.957031 80.347656 59.085938 80.414062 59.207031 80.484375 C 59.214844 80.484375 59.21875 80.484375 59.226562 80.496094 C 59.355469 80.5625 59.472656 80.640625 59.597656 80.71875 C 59.632812 80.742188 59.671875 80.765625 59.703125 80.785156 L 120.03125 121.007812 L 207.433594 33.589844 C 207.488281 33.53125 207.542969 33.480469 207.601562 33.425781 C 207.617188 33.40625 207.632812 33.390625 207.652344 33.378906 C 207.730469 33.308594 207.808594 33.242188 207.886719 33.179688 C 207.960938 33.113281 208.042969 33.054688 208.125 32.992188 C 208.207031 32.933594 208.285156 32.875 208.371094 32.816406 C 208.5 32.734375 208.625 32.660156 208.75 32.585938 C 208.753906 32.582031 208.753906 32.582031 208.757812 32.582031 C 208.824219 32.546875 208.886719 32.507812 208.953125 32.476562 C 209.019531 32.445312 209.085938 32.410156 209.152344 32.378906 C 209.285156 32.316406 209.425781 32.253906 209.5625 32.203125 C 209.625 32.179688 209.691406 32.15625 209.757812 32.136719 C 209.835938 32.109375 209.90625 32.082031 209.984375 32.0625 C 210.089844 32.03125 210.199219 32.003906 210.304688 31.972656 C 210.519531 31.925781 210.738281 31.886719 210.957031 31.855469 C 211.070312 31.84375 211.179688 31.832031 211.289062 31.824219 C 211.4375 31.808594 211.582031 31.804688 211.734375 31.804688 L 368.425781 31.804688 C 370.894531 31.804688 373.117188 33.292969 374.058594 35.578125 C 374.996094 37.863281 374.46875 40.484375 372.714844 42.222656 Z M 50.140625 98.078125 L 25.183594 117.039062 L 50.140625 117.039062 Z M 62.324219 178.730469 L 111.242188 129.800781 L 107.8125 127.515625 L 107.808594 127.511719 L 62.324219 97.183594 Z M 70.9375 187.347656 L 205.644531 187.347656 L 205.644531 52.605469 L 125.109375 133.160156 Z M 203.597656 199.53125 L 81.476562 199.53125 L 115.730469 217.082031 L 187.640625 253.925781 L 187.644531 253.925781 Z M 212.570312 212.210938 L 198.292969 260.886719 L 251.667969 312.523438 L 252.285156 313.121094 Z M 353.644531 43.988281 L 217.824219 43.988281 L 217.824219 178.8125 Z M 353.644531 43.988281 " fill-opacity="1" fill-rule="nonzero"/></g><path fill="#007daf" d="M 50.140625 98.078125 L 50.140625 98.132812 L 35.519531 117.042969 L 25.183594 117.042969 Z M 50.140625 98.078125 " fill-opacity="1" fill-rule="nonzero"/><path fill="#00a583" d="M 107.808594 127.511719 L 62.324219 121.753906 L 62.324219 97.183594 Z M 107.808594 127.511719 " fill-opacity="1" fill-rule="nonzero"/><path fill="#f06057" d="M 205.644531 52.605469 L 205.644531 54.003906 L 113.78125 187.347656 L 70.9375 187.347656 L 125.109375 133.160156 Z M 205.644531 52.605469 " fill-opacity="1" fill-rule="nonzero"/><path fill="#d9c71b" d="M 193.980469 199.53125 L 115.730469 217.082031 L 81.476562 199.53125 Z M 193.980469 199.53125 " fill-opacity="1" fill-rule="nonzero"/><path fill="#fc8d3c" d="M 252.285156 313.117188 L 251.667969 312.519531 L 206.691406 232.253906 L 212.570312 212.210938 Z M 252.285156 313.117188 " fill-opacity="1" fill-rule="nonzero"/><path fill="#77bb4c" d="M 345.179688 43.988281 L 217.820312 84.5625 L 217.820312 43.988281 Z M 345.179688 43.988281 " fill-opacity="1" fill-rule="nonzero"/></svg>