<svg xmlns="http://www.w3.org/2000/svg" xmlns:xlink="http://www.w3.org/1999/xlink" width="170" zoomAndPan="magnify" viewBox="0 0 127.5 54" height="72" preserveAspectRatio="xMidYMid meet" version="1.0"><defs><g/><clipPath id="bbfd1db0a8"><path d="M 9.488281 8.847656 L 52.101562 8.847656 L 52.101562 44.332031 L 9.488281 44.332031 Z M 9.488281 8.847656 " clip-rule="nonzero"/></clipPath></defs><g clip-path="url(#bbfd1db0a8)"><path fill="#000556" d="M 51.839844 10.078125 L 34.222656 27.429688 L 40.527344 43.320312 C 40.644531 43.621094 40.535156 43.96875 40.261719 44.148438 C 40.144531 44.226562 40.011719 44.265625 39.875 44.265625 C 39.699219 44.265625 39.527344 44.199219 39.390625 44.070312 L 30.671875 35.699219 L 30.667969 35.699219 L 15.289062 27.878906 L 15.289062 27.875 L 15.285156 27.875 C 15.273438 27.871094 15.265625 27.867188 15.257812 27.859375 C 15.257812 27.859375 15.253906 27.859375 15.253906 27.859375 C 15.253906 27.859375 15.25 27.859375 15.25 27.855469 C 15.246094 27.855469 15.242188 27.851562 15.234375 27.847656 C 15.234375 27.847656 15.230469 27.84375 15.226562 27.84375 C 15.222656 27.839844 15.21875 27.839844 15.214844 27.835938 C 15.214844 27.835938 15.214844 27.835938 15.210938 27.832031 C 15.210938 27.832031 15.210938 27.832031 15.207031 27.828125 C 15.207031 27.828125 15.203125 27.828125 15.203125 27.828125 C 15.203125 27.824219 15.199219 27.824219 15.199219 27.824219 C 15.195312 27.824219 15.195312 27.820312 15.195312 27.820312 C 15.191406 27.820312 15.191406 27.816406 15.1875 27.816406 C 15.183594 27.8125 15.175781 27.808594 15.171875 27.800781 C 15.167969 27.800781 15.167969 27.800781 15.167969 27.796875 C 15.167969 27.796875 15.164062 27.796875 15.164062 27.796875 C 15.164062 27.796875 15.164062 27.796875 15.160156 27.796875 C 15.160156 27.792969 15.160156 27.792969 15.15625 27.792969 C 15.15625 27.789062 15.152344 27.789062 15.148438 27.785156 C 15.148438 27.785156 15.148438 27.785156 15.144531 27.78125 C 15.144531 27.78125 15.144531 27.78125 15.144531 27.777344 C 15.140625 27.777344 15.136719 27.773438 15.132812 27.769531 C 15.128906 27.765625 15.128906 27.765625 15.125 27.765625 C 15.125 27.765625 15.125 27.761719 15.121094 27.761719 C 15.121094 27.761719 15.121094 27.757812 15.121094 27.757812 L 15.117188 27.757812 C 15.117188 27.757812 15.117188 27.757812 15.117188 27.753906 L 15.113281 27.753906 C 15.113281 27.75 15.109375 27.75 15.109375 27.746094 C 15.105469 27.746094 15.105469 27.746094 15.105469 27.746094 C 15.101562 27.738281 15.097656 27.734375 15.09375 27.730469 C 15.089844 27.730469 15.089844 27.730469 15.089844 27.730469 C 15.089844 27.726562 15.085938 27.726562 15.085938 27.722656 C 15.082031 27.722656 15.082031 27.71875 15.082031 27.71875 C 15.074219 27.714844 15.070312 27.707031 15.070312 27.703125 C 15.0625 27.699219 15.058594 27.695312 15.058594 27.691406 C 15.054688 27.6875 15.054688 27.6875 15.054688 27.683594 C 15.050781 27.679688 15.046875 27.675781 15.042969 27.671875 C 15.039062 27.664062 15.03125 27.65625 15.027344 27.648438 C 15.019531 27.640625 15.011719 27.628906 15.007812 27.621094 C 15 27.605469 14.988281 27.589844 14.980469 27.574219 C 14.980469 27.570312 14.976562 27.566406 14.976562 27.5625 C 14.96875 27.550781 14.964844 27.542969 14.960938 27.53125 C 14.957031 27.523438 14.957031 27.519531 14.953125 27.511719 C 14.949219 27.503906 14.945312 27.496094 14.945312 27.492188 C 14.945312 27.492188 14.945312 27.492188 14.945312 27.488281 C 14.945312 27.488281 14.941406 27.484375 14.941406 27.480469 C 14.9375 27.46875 14.933594 27.457031 14.929688 27.445312 C 14.929688 27.445312 14.929688 27.445312 14.929688 27.441406 C 14.925781 27.433594 14.925781 27.425781 14.921875 27.414062 C 14.921875 27.410156 14.921875 27.402344 14.917969 27.398438 C 14.917969 27.386719 14.914062 27.375 14.914062 27.363281 C 14.910156 27.359375 14.910156 27.351562 14.910156 27.347656 C 14.910156 27.335938 14.90625 27.320312 14.90625 27.304688 C 14.90625 27.289062 14.90625 27.277344 14.90625 27.261719 L 14.90625 19.964844 L 9.976562 19.964844 C 9.675781 19.964844 9.410156 19.773438 9.316406 19.492188 C 9.21875 19.210938 9.316406 18.898438 9.554688 18.71875 L 15.179688 14.476562 C 15.183594 14.472656 15.191406 14.472656 15.195312 14.46875 C 15.207031 14.460938 15.214844 14.453125 15.226562 14.445312 C 15.253906 14.429688 15.277344 14.417969 15.300781 14.40625 C 15.3125 14.398438 15.320312 14.394531 15.328125 14.394531 C 15.335938 14.390625 15.347656 14.386719 15.355469 14.382812 C 15.363281 14.378906 15.371094 14.375 15.378906 14.371094 C 15.390625 14.371094 15.398438 14.367188 15.40625 14.367188 C 15.429688 14.359375 15.453125 14.351562 15.476562 14.347656 C 15.488281 14.347656 15.5 14.34375 15.511719 14.34375 C 15.527344 14.339844 15.542969 14.339844 15.5625 14.339844 C 15.574219 14.339844 15.585938 14.335938 15.601562 14.335938 C 15.617188 14.335938 15.636719 14.339844 15.652344 14.339844 C 15.667969 14.339844 15.683594 14.34375 15.695312 14.34375 C 15.699219 14.34375 15.703125 14.34375 15.710938 14.347656 C 15.71875 14.347656 15.726562 14.347656 15.734375 14.351562 C 15.742188 14.351562 15.75 14.355469 15.757812 14.355469 C 15.761719 14.355469 15.761719 14.355469 15.761719 14.355469 C 15.773438 14.359375 15.789062 14.363281 15.800781 14.367188 C 15.816406 14.371094 15.832031 14.375 15.847656 14.382812 C 15.851562 14.382812 15.851562 14.382812 15.855469 14.386719 C 15.871094 14.390625 15.882812 14.394531 15.894531 14.402344 C 15.898438 14.402344 15.898438 14.402344 15.898438 14.402344 C 15.914062 14.410156 15.929688 14.417969 15.941406 14.425781 C 15.941406 14.425781 15.945312 14.425781 15.945312 14.425781 C 15.960938 14.433594 15.972656 14.441406 15.988281 14.453125 C 15.992188 14.453125 15.996094 14.457031 16 14.460938 L 22.90625 19.03125 L 32.914062 9.097656 C 32.921875 9.089844 32.925781 9.085938 32.933594 9.078125 C 32.933594 9.078125 32.9375 9.074219 32.9375 9.074219 C 32.949219 9.066406 32.957031 9.058594 32.964844 9.050781 C 32.976562 9.042969 32.984375 9.035156 32.992188 9.03125 C 33.003906 9.023438 33.011719 9.015625 33.023438 9.011719 C 33.035156 9 33.050781 8.992188 33.066406 8.984375 C 33.074219 8.980469 33.082031 8.976562 33.089844 8.972656 C 33.09375 8.96875 33.101562 8.964844 33.109375 8.960938 C 33.125 8.953125 33.140625 8.945312 33.15625 8.941406 C 33.164062 8.9375 33.171875 8.933594 33.179688 8.933594 C 33.1875 8.929688 33.199219 8.925781 33.207031 8.925781 C 33.21875 8.921875 33.230469 8.917969 33.242188 8.914062 C 33.269531 8.910156 33.292969 8.902344 33.316406 8.902344 C 33.332031 8.898438 33.34375 8.898438 33.355469 8.898438 C 33.371094 8.894531 33.390625 8.894531 33.40625 8.894531 L 51.347656 8.894531 C 51.628906 8.894531 51.886719 9.0625 51.992188 9.324219 C 52.101562 9.582031 52.039062 9.882812 51.839844 10.078125 Z M 14.902344 16.425781 L 12.046875 18.578125 L 14.902344 18.578125 Z M 16.300781 25.585938 L 21.902344 20.027344 L 21.507812 19.769531 L 16.300781 16.324219 Z M 17.285156 26.566406 L 32.710938 26.566406 L 32.710938 11.257812 L 23.488281 20.410156 Z M 32.476562 27.953125 L 18.492188 27.953125 L 22.414062 29.945312 L 30.648438 34.132812 Z M 33.503906 29.390625 L 32.828125 31.667969 L 31.867188 34.921875 L 37.980469 40.789062 L 38.050781 40.855469 Z M 49.65625 10.28125 L 34.105469 10.28125 L 34.105469 25.597656 Z M 49.65625 10.28125 " fill-opacity="1" fill-rule="nonzero"/></g><path fill="#007daf" d="M 14.902344 16.425781 L 14.902344 16.429688 L 13.230469 18.578125 L 12.046875 18.578125 Z M 14.902344 16.425781 " fill-opacity="1" fill-rule="nonzero"/><path fill="#00a583" d="M 21.507812 19.769531 L 16.300781 19.113281 L 16.300781 16.324219 Z M 21.507812 19.769531 " fill-opacity="1" fill-rule="nonzero"/><path fill="#f06057" d="M 32.710938 11.257812 L 32.710938 11.417969 L 22.191406 26.566406 L 17.285156 26.566406 L 23.488281 20.410156 Z M 32.710938 11.257812 " fill-opacity="1" fill-rule="nonzero"/><path fill="#d9c71b" d="M 31.375 27.953125 L 22.414062 29.945312 L 18.492188 27.953125 Z M 31.375 27.953125 " fill-opacity="1" fill-rule="nonzero"/><path fill="#fc8d3c" d="M 38.050781 40.855469 L 37.980469 40.789062 L 32.828125 31.667969 L 33.503906 29.390625 Z M 38.050781 40.855469 " fill-opacity="1" fill-rule="nonzero"/><path fill="#77bb4c" d="M 48.6875 10.28125 L 34.105469 14.890625 L 34.105469 10.28125 Z M 48.6875 10.28125 " fill-opacity="1" fill-rule="nonzero"/><g fill="#000556" fill-opacity="1"><g transform="translate(52.107691, 25.4994)"><g><path d="M 4.933594 0.113281 C 6.636719 0.113281 8.109375 -0.84375 8.839844 -2.246094 L 7.210938 -3.089844 C 6.792969 -2.273438 5.949219 -1.730469 4.933594 -1.730469 C 3.488281 -1.730469 2.390625 -2.847656 2.390625 -4.292969 C 2.390625 -5.734375 3.488281 -6.851562 4.933594 -6.851562 C 5.949219 -6.851562 6.792969 -6.308594 7.210938 -5.492188 L 8.839844 -6.335938 C 8.109375 -7.738281 6.636719 -8.695312 4.933594 -8.695312 C 2.503906 -8.695312 0.527344 -6.722656 0.527344 -4.292969 C 0.527344 -1.859375 2.503906 0.113281 4.933594 0.113281 Z M 4.933594 0.113281 "/></g></g></g><g fill="#000556" fill-opacity="1"><g transform="translate(63.446191, 25.4994)"><g><path d="M 4.933594 0.113281 C 7.378906 0.113281 9.339844 -1.859375 9.339844 -4.292969 C 9.339844 -6.722656 7.378906 -8.695312 4.933594 -8.695312 C 2.503906 -8.695312 0.527344 -6.722656 0.527344 -4.292969 C 0.527344 -1.859375 2.503906 0.113281 4.933594 0.113281 Z M 4.933594 -1.730469 C 3.488281 -1.730469 2.390625 -2.847656 2.390625 -4.292969 C 2.390625 -5.734375 3.488281 -6.851562 4.933594 -6.851562 C 6.394531 -6.851562 7.496094 -5.734375 7.496094 -4.292969 C 7.496094 -2.847656 6.394531 -1.730469 4.933594 -1.730469 Z M 4.933594 -1.730469 "/></g></g></g><g fill="#000556" fill-opacity="1"><g transform="translate(75.456846, 25.4994)"><g><path d="M 2.730469 -1.671875 L 2.730469 -8.582031 L 0.84375 -8.582031 L 0.84375 0 L 5.578125 0 L 5.578125 -1.671875 Z M 2.730469 -1.671875 "/></g></g></g><g fill="#000556" fill-opacity="1"><g transform="translate(83.191387, 25.4994)"><g><path d="M 4.933594 0.113281 C 7.378906 0.113281 9.339844 -1.859375 9.339844 -4.292969 C 9.339844 -6.722656 7.378906 -8.695312 4.933594 -8.695312 C 2.503906 -8.695312 0.527344 -6.722656 0.527344 -4.292969 C 0.527344 -1.859375 2.503906 0.113281 4.933594 0.113281 Z M 4.933594 -1.730469 C 3.488281 -1.730469 2.390625 -2.847656 2.390625 -4.292969 C 2.390625 -5.734375 3.488281 -6.851562 4.933594 -6.851562 C 6.394531 -6.851562 7.496094 -5.734375 7.496094 -4.292969 C 7.496094 -2.847656 6.394531 -1.730469 4.933594 -1.730469 Z M 4.933594 -1.730469 "/></g></g></g><g fill="#000556" fill-opacity="1"><g transform="translate(95.202042, 25.4994)"><g><path d="M 5.320312 -3.53125 C 6.335938 -3.832031 7.050781 -4.777344 7.050781 -5.949219 C 7.050781 -7.410156 5.964844 -8.582031 4.492188 -8.582031 L 0.84375 -8.582031 L 0.84375 0 L 2.730469 0 L 2.730469 -3.320312 L 3.488281 -3.320312 L 5.605469 0 L 7.722656 0 Z M 4.207031 -4.878906 L 2.730469 -4.878906 L 2.730469 -6.910156 L 4.207031 -6.910156 C 4.804688 -6.910156 5.25 -6.480469 5.25 -5.894531 C 5.25 -5.292969 4.804688 -4.878906 4.207031 -4.878906 Z M 4.207031 -4.878906 "/></g></g></g><g fill="#000556" fill-opacity="1"><g transform="translate(104.971384, 25.4994)"><g/></g></g><g fill="#000556" fill-opacity="1"><g transform="translate(52.107691, 38.627009)"><g><path d="M 6.007812 -4.347656 C 6.652344 -4.691406 7.066406 -5.292969 7.066406 -6.195312 C 7.066406 -7.710938 5.921875 -8.582031 4.476562 -8.582031 L 0.84375 -8.582031 L 0.84375 0 L 4.804688 0 C 6.238281 0 7.351562 -0.828125 7.351562 -2.347656 C 7.351562 -3.390625 6.808594 -4.035156 6.007812 -4.347656 Z M 5.179688 -5.992188 C 5.179688 -5.492188 4.761719 -5.0625 4.25 -5.0625 L 2.730469 -5.0625 L 2.730469 -6.910156 L 4.25 -6.910156 C 4.761719 -6.910156 5.179688 -6.507812 5.179688 -5.992188 Z M 4.535156 -1.671875 L 2.730469 -1.671875 L 2.730469 -3.519531 L 4.535156 -3.519531 C 5.0625 -3.519531 5.464844 -3.089844 5.464844 -2.589844 C 5.464844 -2.074219 5.0625 -1.671875 4.535156 -1.671875 Z M 4.535156 -1.671875 "/></g></g></g><g fill="#000556" fill-opacity="1"><g transform="translate(62.001745, 38.627009)"><g><path d="M 0.914062 0 L 2.804688 0 L 2.804688 -8.582031 L 0.914062 -8.582031 Z M 0.914062 0 "/></g></g></g><g fill="#000556" fill-opacity="1"><g transform="translate(67.834196, 38.627009)"><g><path d="M 5.320312 -3.53125 C 6.335938 -3.832031 7.050781 -4.777344 7.050781 -5.949219 C 7.050781 -7.410156 5.964844 -8.582031 4.492188 -8.582031 L 0.84375 -8.582031 L 0.84375 0 L 2.730469 0 L 2.730469 -3.320312 L 3.488281 -3.320312 L 5.605469 0 L 7.722656 0 Z M 4.207031 -4.878906 L 2.730469 -4.878906 L 2.730469 -6.910156 L 4.207031 -6.910156 C 4.804688 -6.910156 5.25 -6.480469 5.25 -5.894531 C 5.25 -5.292969 4.804688 -4.878906 4.207031 -4.878906 Z M 4.207031 -4.878906 "/></g></g></g><g fill="#000556" fill-opacity="1"><g transform="translate(77.61384, 38.627009)"><g><path d="M 0.84375 0 L 3.675781 0 C 6.035156 0 7.96875 -1.917969 7.96875 -4.292969 C 7.96875 -6.664062 6.035156 -8.582031 3.675781 -8.582031 L 0.84375 -8.582031 Z M 2.730469 -1.671875 L 2.730469 -6.910156 L 3.660156 -6.910156 C 5.019531 -6.910156 6.078125 -5.777344 6.078125 -4.292969 C 6.078125 -2.804688 5.019531 -1.671875 3.660156 -1.671875 Z M 2.730469 -1.671875 "/></g></g></g></svg>